<?xml version="1.0" encoding="UTF-8"?>
<svg width="22px" height="16px" viewBox="0 0 22 16" version="1.1" xmlns="http://www.w3.org/2000/svg" xmlns:xlink="http://www.w3.org/1999/xlink">
    <!-- Generator: Sketch 51.3 (57544) - http://www.bohemiancoding.com/sketch -->
    <title>arrow_right_02</title>
    <desc>Created with Sketch.</desc>
    <defs></defs>
    <g id="arrow_right_02" stroke="none" stroke-width="1" fill="none" fill-rule="evenodd">
        <path d="M5.46730478,6.64893614 L10.2571448,11.8204876 C10.6324291,12.2256791 10.6081846,12.8583797 10.2029932,13.233664 C10.0181323,13.4048804 9.77545016,13.5 9.52348076,13.5 L-1.52352732,13.5 C-2.07581207,13.5 -2.52352732,13.0522847 -2.52352732,12.5 C-2.52352732,12.2480306 -2.42840768,12.0053485 -2.25719135,11.8204876 L2.53264866,6.64893614 C3.28321733,5.83855323 4.5486186,5.79006421 5.35900151,6.54063287 C5.39647221,6.57533786 5.43259978,6.61146544 5.46730478,6.64893614 Z" id="Triangle-Copy" fill="#2A5361" transform="translate(4.000000, 9.500000) scale(-1, 1) rotate(-90.000000) translate(-4.000000, -9.500000) "></path>
        <path d="M15.4673048,6.64893614 L20.2571448,11.8204876 C20.6324291,12.2256791 20.6081846,12.8583797 20.2029932,13.233664 C20.0181323,13.4048804 19.7754502,13.5 19.5234808,13.5 L8.47647268,13.5 C7.92418793,13.5 7.47647268,13.0522847 7.47647268,12.5 C7.47647268,12.2480306 7.57159232,12.0053485 7.74280865,11.8204876 L12.5326487,6.64893614 C13.2832173,5.83855323 14.5486186,5.79006421 15.3590015,6.54063287 C15.3964722,6.57533786 15.4325998,6.61146544 15.4673048,6.64893614 Z" id="Triangle-Copy-3" fill="#2A5361" transform="translate(14.000000, 9.500000) scale(-1, 1) rotate(-90.000000) translate(-14.000000, -9.500000) "></path>
    </g>
</svg>